<svg width="818" height="190" viewBox="0 0 818 190" fill="none" xmlns="http://www.w3.org/2000/svg">
<path d="M371.4 223.5V192.6L342.3 175.8V208.9L315.2 224.6V192L286.6 208.5L259 192.5V162.2C259.8 162 260.5 161.2 260.5 160.3C260.5 160.1 260.5 160 260.4 159.8L286.9 144.5L287.2 144.4V110.8L258.6 127.3L230.5 111.1L202.4 127.3L174.8 111.3V79.3999L203.4 62.8999L174.8 46.3999V13.2999L145.6 30L145.3 30.1V62L119.6 47.1C119.6 46.9 119.7 46.8 119.7 46.6C119.7 45.7 119.1 44.9 118.2 44.7V-18L146.1 -34.1001L146.4 -34.2001V-67.8L117.5 -51.1001L117.2 -51V-18.5L89.6 -2.50005L62.5 -18.2001L89.9 -34L90.2 -34.1001V-67.7L61.3 -51L61 -50.9V13.5L35.3 -1.40004C35.3 -1.60004 35.4 -1.70004 35.4 -1.90004C35.4 -2.80004 34.8 -3.60004 33.9 -3.80003V-34.7001L6.3 -50.7001L33.4 -66.4L33.9 -66.1001V-66.7L34.4 -67L33.9 -67.3V-99.8L7 -115.3C7 -115.5 7.1 -115.6 7.1 -115.8C7.1 -116.9 6.2 -117.8 5.1 -117.8C4 -117.8 3.1 -116.9 3.1 -115.8C3.1 -114.9 3.7 -114.1 4.6 -113.9V-83.6001L-24 -67L4.1 -50.8L-23.2 -35L-23.5 -34.9V-2.40004L-24 -2.10005L-23.5 -1.80003V30.7L4.1 46.6L-23.3 62.5L-23.5 62.6V96.2L5.4 79.5L5.7 79.3999V47.5V14.3999L31.9 -0.800034C32.1 -0.600037 32.5 -0.400032 32.8 -0.300034V30.6L60.4 46.6L33 62.5L32.7 62.6V95.1L6.5 110.2C6.1 109.8 5.7 109.6 5.1 109.6C4 109.6 3.1 110.5 3.1 111.6C3.1 112.5 3.7 113.3 4.6 113.5V176.3L-23.3 192.4L-23.5 192.5V226.1V258L4.6 274.2V274.8L5.1 274.5L5.6 274.8V274.2L33.5 258.1L33.8 258V224.4L6.6 240.1C6.2 239.7 5.8 239.5 5.2 239.5C4.7 239.5 4.2 239.7 3.8 240.1L-22 225.3L4.7 209.9L33.3 193.4L61.9 210V176.9L89.8 160.8L90.1 160.7V129.8C90.9 129.6 91.6 128.8 91.6 127.9C91.6 126.8 90.7 125.9 89.6 125.9C88.5 125.9 87.6 126.8 87.6 127.9C87.6 128.1 87.6 128.2 87.7 128.4L61.2 143.7L60.9 143.8V175.7L33.8 160V95.6L61.4 79.7L90 96.2V63.1L116.2 47.8999C116.4 48.0999 116.8 48.2999 117.1 48.3999V79.2999L143.8 94.7C143.8 94.9 143.7 95 143.7 95.2C143.7 95.4 143.7 95.5 143.8 95.7L117.3 111L117 111.1V176L90.9 191.1C90.5 190.6 90 190.3 89.3 190.3C88.2 190.3 87.3 191.2 87.3 192.3C87.3 193.2 87.9 194 88.8 194.2V226L116.9 209.8V241.7L146 258.5V225L118.4 209.1L145.6 193.4L171.8 208.6C171.8 208.8 171.7 208.9 171.7 209.1C171.7 210.2 172.6 211.1 173.7 211.1C174.8 211.1 175.7 210.2 175.7 209.1C175.7 208.2 175.1 207.4 174.2 207.2V144.4L201.8 128.4L228.9 144.1L201.5 159.9L201.2 160V192.5L200.7 192.8L201.2 193.1V225L173.3 241.1L173 241.2V274.8L201.9 258.1L202.2 258V226.1L229.3 241.8V242.4L229.8 242.1L258.4 258.6V227.1C258.7 227 259.1 226.8 259.3 226.6L285.5 241.8V274.9L313.6 258.7L343 242L343.3 241.9V210L369 224.9C369 225.1 368.9 225.2 368.9 225.4C368.9 226.5 369.8 227.4 370.9 227.4C372 227.4 372.9 226.5 372.9 225.4C372.9 224.4 372.2 223.7 371.4 223.5ZM61.9 -50.5L89 -66.2V-34.9L61.9 -19.2001V-50.5ZM4.6 78.8999L-22.5 94.5V63.2L4.6 47.5V78.8999ZM32.8 226.2V257.5L5.7 273.2V243.5C6.5 243.3 7.2 242.5 7.2 241.6C7.2 241.4 7.2 241.3 7.1 241.1L32.8 226.2ZM4.7 243.5V273.2L-22.5 257.5V226.2L3.2 241.1C3.2 241.3 3.1 241.4 3.1 241.6C3.2 242.5 3.8 243.2 4.7 243.5ZM314.1 225L287 240.7V209.4L314.1 193.7V225ZM257.9 223.5C257.6 223.6 257.2 223.8 257 224L231.3 209.1L257.9 193.7V223.5ZM230.7 176.3V145L256.4 159.9C256.4 160.1 256.3 160.2 256.3 160.4C256.3 161.3 256.9 162.1 257.8 162.3V192L230.7 176.3ZM257.9 158.5C257.6 158.6 257.2 158.8 257 159L231.3 144.1L257.9 128.7V158.5ZM230.2 177.2L257.3 192.9L245 200L230.2 208.5L203.1 192.8L215.4 185.7L230.2 177.2ZM230.7 210L256.4 224.9C256.4 225.1 256.3 225.2 256.3 225.4C256.3 225.6 256.3 225.7 256.4 225.9L230.7 240.8V210ZM286 143.8L259.8 159C259.6 158.8 259.2 158.6 258.9 158.5V128.2L286 112.5V143.8ZM146.3 93.5V63.7999L173.4 79.5V110.8L147.7 95.8999C147.7 95.7 147.8 95.5999 147.8 95.3999C147.8 94.5 147.2 93.7 146.3 93.5ZM146.3 97.2999C146.6 97.1999 147 96.9999 147.2 96.7999L172.9 111.7L146.3 127V97.2999ZM174 78.6L146.9 62.8999L160.2 55.2L174 47.2L201.1 62.8999L174 78.6ZM146.3 30.7L173.4 15V46.2999L146.3 62V30.7ZM118.2 -50.5L145.3 -66.2V-34.9L118.2 -19.2001V-50.5ZM117.2 13.8999L108.3 19L90 29.6V-1.70006L117.1 -17.4V13.8999H117.2ZM89 62L75.4 54.2L61.8 46.3999V15L75.4 22.7999L89 30.6V62ZM61.9 -17.4L89 -1.70006V29.6L75.4 21.7999L61.8 14V-17.4H61.9ZM32.8 -4.00005C32.5 -3.90005 32.1 -3.70004 31.9 -3.50005L5.7 -18.7001V-50L32.8 -34.3V-4.00005ZM32.8 -99.2V-67.9L5.7 -83.6001V-113.9C6 -114 6.4 -114.2 6.6 -114.4L32.8 -99.2ZM5.1 -82.7L32.3 -67L5.7 -51.6001L5.2 -51.3L4.7 -51.6001L-22 -67L5.1 -82.7ZM-22.5 -34.3L4.6 -50V-18.7001L-22.5 -2.90004V-34.3ZM-22.5 -1.20006L4.6 14.5V45.7999L-22.5 30.1V-1.20006ZM5.1 13.6L-22 -2.10005L-9.7 -9.20006L5.1 -17.7001L31.3 -2.50005C31.3 -2.30005 31.2 -2.20004 31.2 -2.00005C31.2 -1.80005 31.2 -1.70004 31.3 -1.50005L5.1 13.6ZM33.8 -0.200058C34.1 -0.300056 34.5 -0.500061 34.7 -0.700058L60.9 14.5V45.7999L33.8 30.1V-0.200058ZM33.8 63.2L60.9 47.5V78.7999L33.8 94.5V63.2ZM5.7 113.5C6.5 113.3 7.2 112.5 7.2 111.6C7.2 111.4 7.2 111.3 7.1 111.1L32.8 96.2V127.5L5.7 143.2V113.5ZM32.8 160.1L5.7 175.8V144.5L32.8 128.8V160.1ZM4.6 208.8L-22.5 224.5V193.2L4.6 177.5V208.8ZM5.7 176.9L32.8 161.2V192.5L5.7 208.2V176.9ZM61.9 144.4L88.1 129.2C88.3 129.4 88.7 129.6 89 129.7V160L61.9 175.7V144.4ZM60.9 177.5V208.3L33.8 192.6V161.3L60.9 177V177.5ZM89 94.5L61.9 78.7999V47.5L75.5 55.2999L89.1 63.1V94.5H89ZM90 62V30.7L105.5 21.7L117.1 15V44.7C116.3 44.9 115.6 45.7 115.6 46.6C115.6 46.8 115.6 46.9 115.7 47.1L90 62ZM118.2 78.8999V48.6C118.5 48.5 118.9 48.3 119.1 48.1L145.3 63.2999V93.6C145 93.7 144.6 93.9 144.4 94.1L118.2 78.8999ZM118.2 111.9L144.4 96.7C144.6 96.9 145 97.1 145.3 97.2V127.5L144.8 127.8L118.2 143.2V111.9ZM118.2 176.9L145.3 161.2V192.5L118.2 208.2V176.9ZM145.3 160.1L118.2 175.8V144.5L145.3 128.8V160.1ZM90 224.5V194.4C90.8 194.2 91.5 193.4 91.5 192.5C91.5 192.4 91.5 192.4 91.5 192.3L117.2 177.5V208.8L90 224.5ZM145.3 257L118.2 241.3V210L145.3 225.7V257ZM173.5 207.2C173.2 207.3 172.8 207.5 172.6 207.7L146.4 192.5V161.2L173.5 176.9V207.2ZM146.3 160.1V128.8L173.4 144.5V175.8L146.3 160.1ZM174 143.5L146.9 127.8L174 112.1L174.5 112.4L201.1 127.8L174 143.5ZM230.2 112.2L257.3 127.9L230.7 143.3L230.2 143.6L229.7 143.3L203.1 127.9L230.2 112.2ZM202.6 160.7L229.7 145V176.3L202.6 192V160.7ZM201.6 257.5L174.5 273.2V241.9L201.6 226.2V257.5ZM202.6 225.1V193.8L229.7 209.5V240.8L202.6 225.1ZM231.2 241.6L256.9 226.7C257.1 226.9 257.5 227.1 257.8 227.2V257L231.2 241.6ZM258.9 223.5V193.8L286 209.5V240.8L260.3 225.9C260.3 225.7 260.4 225.6 260.4 225.4C260.3 224.4 259.7 223.7 258.9 223.5ZM287 273.2V241.9L314.1 226.2V257.5L287 273.2ZM342.3 241.3L315.1 257V225.7L342.2 210V241.3H342.3ZM343.3 208.8V177.5L370.4 193.2V223.5C370.1 223.6 369.8 223.8 369.5 224L343.3 208.8ZM817.7 290L789.6 273.8L817 258L817.3 257.9V225.4L817.8 225.1L817.3 224.8V192.3L789.7 176.4L817.1 160.6L817.4 160.5V126.9L788.5 143.6L788.2 143.7V175.6V208.7L762 223.9C761.8 223.7 761.4 223.5 761.1 223.4V160L733 143.8V111L706 95.6C706 95.4 706.1 95.3 706.1 95.1C706.1 94.9 706.1 94.8 706 94.6L732.5 79.3L732.8 79.2V47.2L759.9 62.9V128.5L787.1 112.8C787.5 113.2 787.9 113.4 788.5 113.4C789.6 113.4 790.5 112.5 790.5 111.4C790.5 110.5 789.9 109.7 789 109.5V46.7L817 30.5L817.3 30.4V-3.30005L789 13L760.4 29.5L731.8 13V46.0999L703.9 62.2L703.6 62.3V93.2C702.8 93.3999 702.1 94.2 702.1 95.1C702.1 96 702.7 96.8 703.6 97V127.9L731.7 144.1V176L704.6 191.7V159.8L676.5 143.6V143L676 143.3L675.5 143V143.6L647.6 159.7L647.3 159.8V193.4L674.5 177.7C674.9 178.1 675.3 178.3 675.9 178.3C676.5 178.3 676.9 178.1 677.3 177.7L703.5 192.8V258.4L732.1 241.9L759.7 257.9L787.3 273.9L760.2 289.6L759.7 289.3V289.9L759.2 290.2L759.7 290.5V323L787.8 339.2V369.5C787 369.7 786.3 370.5 786.3 371.4C786.3 372.5 787.2 373.4 788.3 373.4C789.4 373.4 790.3 372.5 790.3 371.4C790.3 371.2 790.3 371.1 790.2 370.9L816.7 355.6L817 355.5V321.9L788.9 338.1V306.8L817.7 290ZM789.1 144.1L816.2 128.4V159.7L789.1 175.4V144.1ZM816.2 257.2L789.1 272.9V241.6L816.2 225.9V257.2ZM816.2 224.1L789.1 208.4V177.1L816.2 192.8V224.1ZM788.6 209.3L815.7 225L803.4 232.1L788.6 240.6L762.4 225.4C762.4 225.2 762.5 225.1 762.5 224.9C762.5 224.7 762.5 224.6 762.4 224.4L788.6 209.3ZM759.9 192.8V223.1C759.6 223.2 759.2 223.4 759 223.6L746.3 216.3L732.7 208.5V177.2L746.3 185L759.9 192.8ZM760.9 62.9L788 47.2V78.5L760.9 94.2V62.9ZM760.9 126.7V95.3999L788 79.7V109.4C787.2 109.6 786.5 110.4 786.5 111.3C786.5 111.5 786.5 111.6 786.6 111.8L760.9 126.7ZM789.1 14.0999L816.2 -1.60004V29.7L789.1 45.4V14.0999ZM788 46L760.9 61.7V30.4L788 14.7V46ZM732.8 14.7L759.9 30.4V61.7L732.8 46V45.4V14.7ZM731.8 47.2V78.5L705.6 93.7C705.4 93.5 705 93.3 704.7 93.2V62.9L731.8 47.2ZM704.6 127.3V97C704.9 96.8999 705.2 96.7 705.5 96.5L731.7 111.7V143L704.6 127.3ZM759.9 160.3V191.6L746.3 183.8L732.7 176V144.7L759.9 160.3ZM648.4 191.7V160.4L675.5 144.7V174.4C674.7 174.6 674 175.4 674 176.3C674 176.5 674 176.6 674.1 176.8L648.4 191.7ZM676.5 174.4V144.7L703.6 160.4V191.7L677.9 176.8C677.9 176.6 678 176.5 678 176.3C678 175.4 677.4 174.6 676.5 174.4ZM704.6 192.8L731.7 177.1V208.4L704.6 224.1V192.8ZM704.6 225.3L731.7 209.6V241L704.6 256.7V225.3ZM732.8 241V209.7L746.4 217.5L758.6 224.5C758.6 224.7 758.5 224.8 758.5 225C758.5 225.9 759.1 226.7 760 226.9V256.6L732.8 241ZM760.9 226.9C761.2 226.8 761.6 226.6 761.8 226.4L788 241.6V272.9L760.9 257.2V226.9ZM788.1 274.6L788.6 274.3L789.1 274.6L815.7 290L788.6 305.7L761.4 290L788.1 274.6ZM760.9 290.9L788 306.6V337.9L760.9 322.2V290.9ZM816.2 323.3V354.6L790 369.8C789.8 369.6 789.4 369.4 789.1 369.3V339L816.2 323.3ZM649.8 127.5C649.8 127.3 649.8 127.2 649.7 127L676.2 111.7L676.5 111.6V46.7L702.6 31.5999C703 32.0999 703.5 32.4 704.2 32.4C705.3 32.4 706.2 31.5 706.2 30.4C706.2 29.5 705.6 28.7 704.7 28.5V-3.30005L676.6 13V-18.9L647.5 -35.7V-2.10004L675 13.8L647.8 29.5L621.6 14.3C621.6 14.1 621.7 14 621.7 13.8C621.7 12.7 620.8 11.8 619.7 11.8C618.6 11.8 617.7 12.7 617.7 13.8C617.7 14.7 618.3 15.5 619.2 15.7V45.4V78.5L591.6 94.5L564.5 78.8L591.9 63L592.2 62.9V30.4L592.7 30.0999L592.2 29.8V-2.10004L620 -18.2L620.3 -18.3V-52L591.4 -35.3L591.1 -35.2V-3.30005L564 -18.9V-19.5L563.5 -19.2L534.9 -35.7V-4.20004C534.6 -4.10004 534.2 -3.90004 534 -3.70004L507.8 -18.8V-52L479.7 -35.8L450.8 -19.1L450.5 -19V13L423.4 -2.70004V-3.30005L422.9 -3.00005L422.4 -3.30005V-2.70004L394.8 13.3L366 -3.30005V29.8L338.9 45.5V13.5L309.8 -3.30005L281.7 -19.5V13.5999L255.5 28.8C255.1 28.4 254.7 28.2 254.1 28.2C253 28.2 252.1 29.0999 252.1 30.2C252.1 31.3 253 32.2 254.1 32.2C254.6 32.2 255.1 31.9999 255.5 31.5999L281.7 46.8V79.8999L310.6 63.2L310.9 63.0999V30.9L338 46.5999V79.7L365.2 64C365.4 64.2 365.8 64.3999 366.1 64.5V95.3999L395.2 112.2V79.7L423.3 95.8999V62.3L395.7 46.3L422.8 30.5999L451.4 47.0999V14.0999L478.5 -1.60004V62.2L450.6 78.3L450.3 78.3999V112L477.5 96.3C477.9 96.7 478.3 96.8999 478.9 96.8999C480 96.8999 480.9 96 480.9 94.8999C480.9 94 480.3 93.2 479.4 93V62.7L507.3 46.5999L507.6 46.5V14.7L534.7 30.4V60.7C533.9 60.8999 533.2 61.7 533.2 62.5999C533.2 62.7999 533.2 62.8999 533.3 63.0999L506.8 78.3999L506.5 78.5V112.1L535.1 95.6L563.2 111.8L591.3 95.6L619.4 111.8L647 95.8V125.5C646.2 125.7 645.5 126.5 645.5 127.4C645.5 128.5 646.4 129.4 647.5 129.4C649 129.5 649.8 128.6 649.8 127.5ZM675.5 111L649.3 126.2C649.1 126 648.7 125.8 648.4 125.7V95.3999L648.9 95.1L675.5 79.7V111ZM620.2 47.2L647.3 62.9V94.2L620.2 78.5V47.2ZM648.4 62.9L675.5 47.2V78.5L648.4 94.2V62.9ZM675.5 46L648.4 61.7V30.4L675.5 14.7V46ZM703.7 -1.50005V28.5999C702.9 28.7999 702.2 29.6 702.2 30.5C702.2 30.6 702.2 30.5999 702.2 30.7L676.5 45.5V14.0999L703.7 -1.50005ZM648.4 -34L675.5 -18.3V13L648.4 -2.70004V-34ZM620.2 15.7C620.5 15.5999 620.9 15.3999 621.1 15.2L647.3 30.4V61.7L620.2 46V15.7ZM563.5 45.8L536.4 30.0999L548.7 23L563.5 14.5L590.6 30.2L578.3 37.3L563.5 45.8ZM535.8 -0.500046C536.1 -0.600044 536.5 -0.800049 536.7 -1.00005L562.4 13.9L535.8 29.3V-0.500046ZM563 13L537.3 -1.90005C537.3 -2.10004 537.4 -2.20005 537.4 -2.40005C537.4 -2.60004 537.4 -2.70005 537.3 -2.90005L563 -17.8V13ZM563 46.5999V78L537.3 63.0999C537.3 62.8999 537.4 62.7999 537.4 62.5999C537.4 61.7 536.8 60.8999 535.9 60.7V31L563 46.5999ZM535.8 64.5C536.1 64.3999 536.5 64.2 536.7 64L562.4 78.8999L535.8 94.3V64.5ZM591.1 62.3L564 78V46.5999L591.1 31V62.3ZM592.1 -34.6L619.2 -50.3V-19L592.1 -3.30005V-34.6ZM591.1 -2.10004V29.2L564 13.5999V-17.8L591.1 -2.10004ZM562.5 -18.6L536.8 -3.70004C536.6 -3.90004 536.2 -4.10004 535.9 -4.20004V-34L562.5 -18.6ZM506.7 -50.3V-19L479.6 -3.30005V-34.6L506.7 -50.3ZM422.3 -1.50005V29.8L395.2 45.5V14.0999L422.3 -1.50005ZM367 -1.50005L394.1 14.2V45.5L380.5 37.7L367 29.8V-1.50005ZM394.2 77.8999L380.6 70.1L368.4 63.0999C368.4 62.8999 368.5 62.7999 368.5 62.5999C368.5 61.7 367.9 60.8999 367 60.7V31L380.6 38.8L394.2 46.5999V77.8999ZM337.9 45.5L310.8 29.8V-1.50005L337.9 14.2V45.5ZM282.6 -17.8L309.7 -2.10004V29.2L282.6 13.5V-17.8ZM255.9 29.5999L282.1 14.4L309.2 30.0999L296.9 37.2L282.1 45.7L255.9 30.5C255.9 30.3 256 30.2 256 30C256 29.8 255.9 29.7 255.9 29.5999ZM309.7 62.3L282.6 78V46.5999L309.7 31V62.3ZM338.9 77.8999V46.5999L366 31V60.7C365.2 60.8999 364.5 61.7 364.5 62.5999C364.5 62.7999 364.5 62.8999 364.6 63.0999L338.9 77.8999ZM394.2 110.4L367 94.8V64.5C367.3 64.3999 367.7 64.2 367.9 64L380.6 71.3L394.2 79.1V110.4ZM422.3 94.2L395.2 78.5V47.2L422.3 62.9V94.2ZM450.4 45.5L423.3 29.8V-1.50005L450.4 14.2V45.5ZM451.4 13V-18.4L478.6 -34V-2.70004L451.4 13ZM506.7 -17.8V13.5L479.6 29.2V-2.10004L506.7 -17.8ZM451.4 110.4V79.1L478.5 63.4V93.1C477.7 93.3 477 94.1 477 95C477 95.2 477 95.3 477.1 95.5L451.4 110.4ZM506.7 46L479.6 61.7V30.4L506.7 14.7V46ZM507.7 -17.8L533.4 -2.90005C533.4 -2.70005 533.3 -2.60004 533.3 -2.40005C533.3 -1.50005 533.9 -0.700043 534.8 -0.500046V29.2L507.7 13.5V-17.8ZM507.7 79.1L533.9 63.9C534.1 64.1 534.5 64.3 534.8 64.4V94.7L507.7 110.4V79.1ZM563.5 110.7L536.4 95L563 79.6L563.5 79.3L564 79.6L590.6 95L563.5 110.7ZM592.6 95.1L619.7 79.3999L646.8 95.1L619.7 110.8L592.6 95.1Z" fill="#35438C"/>
</svg>
