<svg width="401" height="210" viewBox="0 0 401 210" fill="none" xmlns="http://www.w3.org/2000/svg">
<path d="M269.747 37.6965C268.541 66.847 268.852 82.6514 279.432 94.7877C290.012 106.924 319.69 103.919 319.69 103.919C319.69 103.919 322.607 146.845 364.11 148.679C405.574 150.513 411.564 95.2169 379.046 81.0515C348.123 67.5494 338.283 63.6471 327.586 30.2041C317.823 -0.312184 287.328 5.50229 280.054 18.2629C272.781 30.9845 269.747 37.6965 269.747 37.6965Z" fill="#35438C"/>
<path d="M283.359 186.531C283.359 186.531 263.794 190.395 262.783 190.161C261.772 189.965 240.379 180.444 238.161 181.849C235.944 183.253 223.031 188.717 220.191 189.965C217.352 191.175 221.825 191.604 224.042 191.604C226.259 191.604 238.978 186.336 240.379 187.351C241.779 188.365 229.293 190.395 229.293 191.214C229.293 192.034 262.783 199.721 264.806 199.721C266.828 199.721 282.348 198.316 282.348 198.316L283.359 186.531Z" fill="#E38540"/>
<path d="M299.617 79.2566C289.076 81.3248 282.853 92.5245 280.83 102.319C278.846 112.153 299.617 79.2566 299.617 79.2566Z" fill="#6791C9"/>
<path d="M317.278 71.6858C317.278 71.6858 337.582 85.344 348.473 92.056C359.364 98.729 344.545 170.727 340.888 197.458C337.271 224.189 274.258 199.878 274.258 199.878C274.258 199.878 278.498 177.4 273.053 141.264C269.163 115.353 283.438 99.1583 291.606 87.9196C312.299 59.5496 317.278 71.6858 317.278 71.6858Z" fill="#75A1DE"/>
<path d="M337.271 92.3683C313.972 120.933 306.076 126.28 311.833 145.518C316.384 160.698 317.901 166.161 318.796 171.352C319.69 176.503 275.504 167.996 275.504 167.996L275.815 184.698C275.815 184.698 310.627 201.399 327.586 204.755C344.545 208.112 355.125 204.131 355.125 204.131L337.271 92.3683Z" fill="#6791C9"/>
<path d="M45.3125 206.746H321.168C323.152 206.746 324.785 205.107 324.785 203.116C324.785 201.126 323.152 199.487 321.168 199.487H45.3125C43.3288 199.487 41.6951 201.126 41.6951 203.116C41.734 205.107 43.3288 206.746 45.3125 206.746Z" fill="#35438C"/>
<path d="M309.81 42.9257L320.312 74.1053C320.312 74.1053 308.799 105.402 299.114 98.4168C295.808 96.0364 300.32 77.1491 300.32 77.1491L293.24 51.823L309.81 42.9257Z" fill="#F09959"/>
<path d="M343.339 91.1587C357.847 92.7586 359.092 112.426 365.743 145.245C372.395 178.064 370.411 199.722 367.26 203.858C359.676 213.887 274.608 178.961 264.029 179.234C256.716 179.429 262.823 167.098 262.823 167.098L343.922 179.547C343.922 179.547 332.409 141.577 332.409 122.143C332.409 102.671 337.893 90.5343 343.339 91.1587Z" fill="#F09959"/>
<path d="M267.917 167.683C259.438 165.576 247.03 160.698 244.618 162.805C242.207 164.912 232.21 180.131 228.865 184.385C225.52 188.638 230.382 185.282 233.999 181.965C237.617 178.609 240.651 176.814 240.651 176.814C240.651 176.814 245.202 181.068 249.441 183.487C253.681 185.907 255.198 181.068 262.472 179.858C269.745 178.648 287.91 185.009 287.91 185.009L267.917 167.683Z" fill="#F09959"/>
<path d="M341.703 88.7C350.572 89.0902 357.456 96.5827 359.868 108.134C362.28 119.685 369.359 156.327 369.359 156.327C369.359 156.327 370.759 157.342 356.017 159.957C341.275 162.571 329.179 159.566 329.179 159.566C329.179 159.566 326.145 138.689 326.961 124.328C327.778 109.968 331.007 96.3876 336.258 91.7048C341.509 87.1 341.703 88.7 341.703 88.7Z" fill="#75A1DE"/>
<path d="M300.32 77.1881L293.24 51.8619L309.81 42.9646L312.339 50.4571C312.883 75.5881 306.465 84.0172 302.148 87.1C300.786 88.0756 299.619 87.3341 298.647 85.7342C299.386 81.1684 300.32 77.1881 300.32 77.1881Z" fill="#E38540"/>
<path d="M266.71 45.8915C266.71 59.4326 268.305 76.0565 280.052 75.6663C298.217 75.0419 309.652 60.8765 309.652 47.3354C309.652 33.7943 300.162 22.7897 288.454 22.7897C276.707 22.7897 266.71 32.3504 266.71 45.8915Z" fill="#F09959"/>
<path d="M131.158 199.487H199.266L171.26 137.674C170.443 135.879 168.654 134.708 166.67 134.708H104.863C103.424 134.708 102.491 136.191 103.074 137.479L131.158 199.487Z" fill="#9BD6E8"/>
<path d="M131.274 199.487H256.91C256.91 195.077 253.371 191.526 248.975 191.526H131.274V199.487Z" fill="#9BD6E8"/>
<path d="M104.863 134.708H159.319C161.302 134.708 163.092 135.879 163.908 137.674L191.914 199.487H131.157L103.074 137.479C102.452 136.191 103.424 134.708 104.863 134.708Z" fill="#7BCEE8"/>
<path d="M286.705 18.0676C273.83 17.17 266.206 28.9551 263.989 39.2963C262.394 46.7497 263.172 48.1936 263.172 48.1936C263.172 48.1936 264.572 50.2228 274.685 50.8082C284.76 51.4325 286.004 51.1984 286.004 51.1984L286.627 39.4524L289.661 50.8082C289.661 50.8082 291.294 53.0325 297.518 49.9887C303.78 46.9448 306.62 36.8378 306.62 36.8378C306.62 36.8378 308.02 30.1648 303.197 25.7161C298.296 21.2675 286.705 18.0676 286.705 18.0676Z" fill="#35438C"/>
<path d="M310.832 61.5289C304.013 62.5625 297.484 56.7493 296.248 48.5447C295.013 40.3401 299.539 32.8511 306.357 31.8175C313.176 30.7839 319.705 36.5972 320.94 44.8018C322.176 53.0063 317.65 60.4954 310.832 61.5289Z" fill="#D54A41"/>
<path d="M313.155 60.5648C307.696 61.3923 302.345 55.913 301.202 48.3264C300.06 40.7398 303.559 33.9189 309.018 33.0913C314.477 32.2638 319.829 37.7432 320.971 45.3297C322.114 52.9163 318.614 59.7373 313.155 60.5648Z" fill="#F39892"/>
<path d="M314.597 53.6094C312.431 53.9378 310.164 50.818 309.535 46.6412C308.906 42.4643 310.153 38.812 312.319 38.4836C314.486 38.1552 316.752 41.2749 317.381 45.4518C318.01 49.6287 316.764 53.281 314.597 53.6094Z" fill="#F2E5DE"/>
<path d="M309.887 32.0769C303.974 10.0677 283.593 13.2676 278.458 16.3505C274.102 18.926 273.518 22.5942 273.518 22.5942C273.518 22.5942 279.119 18.0285 288.649 19.7065C297.712 21.3064 303.08 26.6526 303.858 32.5842C304.208 35.55 309.887 32.0769 309.887 32.0769Z" fill="#D54A41"/>
<path d="M400.439 103.139H400.478C400.751 103.1 400.906 102.904 400.906 102.631C400.362 97.0509 397.6 91.3535 393.088 86.5146C387.993 81.0513 380.719 76.7588 372.123 74.0661C352.908 68.0956 336.143 60.525 325.602 27.9796C325.524 27.7454 325.252 27.5894 325.019 27.6674C324.785 27.7454 324.63 28.0186 324.708 28.2527C329.531 43.1987 336.143 54.0862 344.856 61.5397C352.558 68.0956 361.193 71.6467 371.85 74.9637C380.33 77.5782 387.448 81.7928 392.427 87.139C396.783 91.8218 399.467 97.3631 399.973 102.709C400.012 102.982 400.206 103.139 400.439 103.139Z" fill="#35438C"/>
<path d="M391.765 80.6615C391.92 80.6615 392.037 80.5834 392.115 80.4663C392.271 80.2712 392.232 79.959 392.037 79.8029C391.959 79.7249 383.752 73.4421 371.85 70.7885C349.056 65.7545 333.731 51.9793 327.585 31.0238C327.508 30.7896 327.235 30.6335 327.002 30.7116C326.769 30.7896 326.613 31.0628 326.691 31.2969C330.503 44.2527 337.66 54.4768 347.967 61.6961C354.619 66.3399 362.592 69.6959 371.655 71.7251C383.324 74.3007 391.376 80.5054 391.454 80.5444C391.57 80.6614 391.687 80.6615 391.765 80.6615Z" fill="#35438C"/>
<path d="M99.4955 73.9492H160.952C161.536 73.9492 161.808 73.481 161.614 72.8956L149.128 38.516C148.933 37.9307 148.272 37.4624 147.689 37.4624H86.1929C85.6094 37.4624 85.3371 37.9307 85.5316 38.516L98.0174 72.8956C98.2508 73.481 98.9121 73.9492 99.4955 73.9492Z" fill="#9EC8FF"/>
<path d="M100.234 72.3492H159.045C159.59 72.3492 159.862 71.9199 159.668 71.3736L148.31 40.0769C148.115 39.5306 147.532 39.1013 146.987 39.1013H88.1368C87.5923 39.1013 87.32 39.5306 87.5145 40.0769L98.8723 71.3736C99.1057 71.9199 99.6891 72.3492 100.234 72.3492Z" fill="white"/>
<path d="M101.286 70.3201H156.519C157.142 70.3201 157.453 69.8128 157.219 69.2274L147.417 42.2233C147.184 41.5989 146.523 41.1306 145.939 41.1306H90.7061C90.0837 41.1306 89.7726 41.6379 90.0059 42.2233L99.8079 69.2274C100.002 69.8128 100.664 70.3201 101.286 70.3201Z" fill="#9EC8FF"/>
<path d="M113.498 55.7252C115.52 61.3056 121.705 65.8323 127.267 65.8323C132.829 65.8323 135.708 61.3056 133.685 55.7252C131.662 50.1449 125.478 45.6182 119.916 45.6182C114.353 45.5791 111.475 50.1059 113.498 55.7252Z" fill="white"/>
<path d="M114.897 55.7253C116.647 60.5252 121.937 64.4275 126.76 64.4275C131.544 64.4275 134.034 60.5252 132.283 55.7253C130.533 50.9255 125.243 47.0231 120.42 47.0231C115.636 46.9841 113.185 50.8864 114.897 55.7253Z" fill="#9EC8FF"/>
<path d="M119.138 55.2573L122.989 57.0914L126.84 58.9255L125.517 55.2573L124.156 51.55L121.667 53.4232L119.138 55.2573Z" fill="white"/>
<path d="M192.574 35.2775H197.436C198.447 35.2775 199.303 34.8483 199.809 34.1459C200.353 33.3654 200.431 32.3508 200.042 31.2972L198.292 26.4192C197.592 24.5461 195.608 23.0632 193.702 23.0632H188.84C187.828 23.0632 186.973 23.4925 186.467 24.1949C185.923 24.9754 185.845 25.99 186.234 27.0436L187.984 31.9215C188.645 33.7947 190.668 35.2775 192.574 35.2775ZM193.663 24.9364C194.752 24.9364 196.075 25.9119 196.502 27.0436L198.253 31.9215C198.408 32.3898 198.408 32.78 198.214 33.0532C198.019 33.3264 197.669 33.4044 197.397 33.4044H192.535C191.407 33.4044 190.123 32.4288 189.696 31.2972L187.945 26.4192C187.79 25.951 187.79 25.5607 187.984 25.2876C188.179 25.0144 188.529 24.9364 188.801 24.9364H193.663Z" fill="#9CD499"/>
<path d="M200.043 55.9205H204.905C205.916 55.9205 206.772 55.4912 207.277 54.7888C207.822 54.0083 207.9 52.9937 207.511 51.9401L205.76 47.0622C205.06 45.1891 203.077 43.7062 201.171 43.7062H196.309C195.297 43.7062 194.442 44.1354 193.936 44.8379C193.391 45.6183 193.314 46.6329 193.702 47.6866L195.453 52.5645C196.153 54.4766 198.176 55.9205 200.043 55.9205ZM201.171 45.6183C202.26 45.6183 203.582 46.5939 204.01 47.7256L205.76 52.6035C205.916 53.0718 205.916 53.462 205.722 53.7352C205.527 54.0083 205.177 54.0864 204.905 54.0864H200.043C198.915 54.0864 197.631 53.1108 197.203 51.9791L195.453 47.1012C195.297 46.6329 195.297 46.2427 195.492 45.9695C195.686 45.6964 196.036 45.6183 196.309 45.6183H201.171Z" fill="#9CD499"/>
<path d="M207.55 76.603H212.413C213.424 76.603 214.28 76.1737 214.785 75.4713C215.33 74.6908 215.408 73.6762 215.019 72.6226L213.229 67.7447C212.529 65.8716 210.546 64.3887 208.64 64.3887H203.777C202.766 64.3887 201.91 64.8179 201.405 65.5203C200.86 66.3008 200.782 67.3154 201.171 68.3691L202.922 73.247C203.622 75.1201 205.645 76.603 207.55 76.603ZM208.64 66.2618C209.768 66.2618 211.051 67.2374 211.479 68.3691L213.229 73.247C213.385 73.7153 213.385 74.1055 213.19 74.3786C212.996 74.6518 212.646 74.7299 212.374 74.7299H207.512C206.384 74.7299 205.1 73.7543 204.672 72.6226L202.922 67.7447C202.766 67.2764 202.766 66.8862 202.961 66.613C203.155 66.3398 203.505 66.2618 203.777 66.2618H208.64Z" fill="#9EC8FF"/>
<path d="M152.709 31.2965H179.353C179.859 31.2965 180.131 30.8673 179.937 30.399C179.742 29.8917 179.198 29.5015 178.692 29.5015H152.048C151.542 29.5015 151.27 29.9307 151.465 30.399C151.659 30.9063 152.204 31.2965 152.709 31.2965Z" fill="#9EC8FF"/>
<path d="M154.03 34.9649H180.674C181.179 34.9649 181.452 34.5356 181.257 34.0673C181.063 33.56 180.518 33.1698 180.013 33.1698H153.368C152.863 33.1698 152.59 33.5991 152.785 34.0673C152.979 34.5356 153.524 34.9649 154.03 34.9649Z" fill="#9EC8FF"/>
<path d="M159.631 50.4571H186.275C186.781 50.4571 187.053 50.0278 186.859 49.5595C186.664 49.0522 186.12 48.662 185.614 48.662H158.97C158.464 48.662 158.192 49.0912 158.386 49.5595C158.581 50.0278 159.164 50.4571 159.631 50.4571Z" fill="#9EC8FF"/>
<path d="M160.951 54.0862H187.596C188.101 54.0862 188.374 53.657 188.179 53.1887C187.985 52.6814 187.44 52.2911 186.934 52.2911H160.29C159.785 52.2911 159.512 52.7204 159.707 53.1887C159.901 53.657 160.485 54.0862 160.951 54.0862Z" fill="#9EC8FF"/>
<path d="M167.369 71.6858H194.014C194.519 71.6858 194.792 71.2565 194.597 70.7882C194.403 70.2809 193.858 69.8907 193.352 69.8907H166.708C166.203 69.8907 165.93 70.3199 166.125 70.7882C166.319 71.2955 166.864 71.6858 167.369 71.6858Z" fill="#9EC8FF"/>
<path d="M168.694 75.354H195.338C195.844 75.354 196.116 74.9247 195.921 74.4564C195.727 73.9491 195.182 73.5589 194.677 73.5589H168.032C167.527 73.5589 167.254 73.9882 167.449 74.4564C167.643 74.9247 168.188 75.354 168.694 75.354Z" fill="#9EC8FF"/>
<path d="M193.7 32.5454C193.778 32.5454 193.856 32.5454 193.934 32.5064C194.206 32.4284 194.44 32.2332 194.556 31.9601L196.384 27.3944C196.579 26.9261 196.345 26.3797 195.879 26.1846C195.412 25.9895 194.867 26.2237 194.673 26.6919L193.311 30.087L182.498 21.736C182.109 21.4238 181.487 21.5018 181.176 21.8921C180.865 22.2823 180.942 22.9067 181.331 23.2189L193.117 32.3503C193.273 32.4674 193.467 32.5454 193.7 32.5454Z" fill="#F37168"/>
<path d="M201.169 53.1889C201.247 53.1889 201.325 53.1889 201.403 53.1498C201.675 53.0718 201.908 52.8767 202.025 52.6035L203.853 48.0378C204.048 47.5695 203.814 47.0232 203.347 46.8281C202.881 46.6329 202.336 46.8671 202.142 47.3354L200.78 50.7304L189.967 42.3794C189.578 42.0672 188.956 42.1453 188.644 42.5355C188.333 42.9257 188.411 43.5501 188.8 43.8623L200.586 52.9938C200.78 53.1108 200.975 53.1889 201.169 53.1889Z" fill="#F37168"/>
<path d="M25.0066 7.29737H127.344L124.699 0H22.3616L25.0066 7.29737Z" fill="#9EC8FF"/>
<path d="M28.9753 18.2237H131.312L128.668 10.9653H26.3304L28.9753 18.2237Z" fill="#9EC8FF"/>
<path d="M142.398 105.675H217.546C218.519 105.675 219.024 104.856 218.674 103.88C218.324 102.904 217.235 102.085 216.224 102.085H141.075C140.103 102.085 139.597 102.904 139.947 103.88C140.336 104.856 141.425 105.675 142.398 105.675Z" fill="#9EC8FF"/>
<path d="M145.277 113.636H220.464C221.437 113.636 221.942 112.816 221.592 111.841C221.242 110.865 220.153 110.046 219.142 110.046H143.993C143.021 110.046 142.515 110.865 142.865 111.841C143.215 112.816 144.304 113.636 145.277 113.636Z" fill="#9EC8FF"/>
<path d="M74.9526 180.951C74.9526 179.702 59.7829 137.557 70.0517 110.475C77.2476 91.5096 78.3755 68.72 78.3755 68.72C78.3755 68.72 92.3784 88.856 82.9265 119.606C77.092 138.533 74.7193 143.762 74.2136 149.342C73.7079 154.923 76.4696 182.746 76.4696 182.746L74.9526 180.951Z" fill="#9CD499"/>
<path d="M76.4735 183.176C76.5513 183.176 76.5902 183.176 76.668 183.137C76.8625 183.059 76.9792 182.864 76.9403 182.669C76.9014 182.395 74.1786 154.806 74.6843 149.343C74.9954 145.713 76.1234 142.279 78.5739 134.748C79.8186 130.885 81.3745 126.085 83.3582 119.685C88.2592 103.685 86.7811 90.6125 84.6418 82.4566C82.3469 73.5984 78.8851 68.6034 78.7684 68.4082C78.6517 68.2522 78.4572 68.1741 78.2628 68.2131C78.0683 68.2522 77.9516 68.4473 77.9127 68.6424C77.9127 68.8765 76.7069 91.5491 69.6277 110.241C65.7769 120.387 64.999 133.733 67.3328 149.967C69.1998 162.923 72.4671 174.005 73.9063 178.727C74.2175 179.82 74.4898 180.717 74.5287 180.913C74.5287 181.03 74.5676 181.108 74.6454 181.186L76.1623 182.942C76.2012 183.137 76.3179 183.176 76.4735 183.176ZM78.7295 70.1643C79.8964 72.1545 82.1135 76.5251 83.7472 82.7298C85.8476 90.7686 87.3257 103.646 82.4636 119.412C80.4799 125.812 78.924 130.611 77.6793 134.436C75.1899 142.045 74.0619 145.479 73.7507 149.226C73.3229 154.103 75.3066 175.371 75.8901 181.225L75.4233 180.678C75.3844 180.405 75.1899 179.859 74.8009 178.454C66.0492 149.03 64.5711 126.202 70.5223 110.553C76.5513 94.5539 78.3405 75.5495 78.7295 70.1643Z" fill="#74B570"/>
<path d="M71.6503 185.244C73.9064 138.416 62.8208 112.856 40.1051 92.6024C17.3895 72.3493 16.3782 67.0421 16.3782 67.0421C16.3782 67.0421 19.9177 106.534 33.0259 120.192C46.1341 133.85 65.3102 143.996 68.1108 151.059C70.8724 158.162 69.8611 181.927 69.8611 181.927L71.6115 186.219V185.244H71.6503Z" fill="#9CD499"/>
<path d="M74.4493 189.302C74.6827 188.56 69.665 145.518 51.228 142.981C32.8299 140.445 28.5123 144.737 15.9098 142.747C6.92468 141.303 0.00111389 138.454 0.00111389 138.454C0.00111389 138.454 4.78541 150.669 21.1998 155.664C32.791 159.215 47.9218 153.4 56.7514 154.922C65.5809 156.444 70.1318 175.41 70.1318 175.41L71.6488 185.282L74.4493 189.302Z" fill="#9CD499"/>
<path d="M71.9188 182.941C72.1522 182.941 72.3467 182.746 72.3856 182.512C72.4245 182.2 75.0305 151.996 62.2335 128.855C55.6211 116.914 48.4252 109.968 41.4238 103.256C34.9281 97.0118 28.7824 91.1192 24.1148 81.7927C23.9981 81.5585 23.7258 81.4805 23.4924 81.5975C23.259 81.7146 23.1812 81.9878 23.2979 82.2219C28.0433 91.7046 34.2279 97.6361 40.7625 103.958C47.6862 110.592 54.8431 117.499 61.3778 129.323C74.0192 152.191 71.452 182.161 71.4132 182.473C71.3743 182.746 71.5687 182.941 71.841 182.98C71.8799 182.902 71.9188 182.941 71.9188 182.941Z" fill="#74B570"/>
<path d="M73.1652 176.853C73.2041 176.853 73.243 176.853 73.2819 176.853C73.5153 176.775 73.6708 176.502 73.593 176.268C68.7699 159.566 63.2076 149.81 56.1673 145.596C49.8661 141.81 43.3314 142.981 36.4078 144.191C34.6964 144.503 32.946 144.815 31.2346 145.01C16.2204 147.001 8.86898 143.332 8.79119 143.293C8.55781 143.176 8.28554 143.254 8.16885 143.488C8.05216 143.723 8.12995 143.996 8.36333 144.113C8.67451 144.269 15.9871 147.937 31.3513 145.947C33.1016 145.713 34.852 145.401 36.5634 145.088C43.2926 143.879 49.6716 142.747 55.7006 146.376C62.5464 150.474 67.953 160.034 72.7373 176.502C72.7762 176.697 72.9707 176.853 73.1652 176.853Z" fill="#74B570"/>
<path d="M49.0853 111.919C49.2409 111.919 49.3576 111.841 49.4743 111.724C49.6299 111.528 49.591 111.216 49.3965 111.06C49.3187 110.982 40.3336 104.114 27.8866 101.734C27.6144 101.695 27.381 101.851 27.3421 102.124C27.3032 102.397 27.4588 102.631 27.731 102.67C39.9835 105.011 48.7742 111.763 48.852 111.802C48.8909 111.88 48.9686 111.919 49.0853 111.919Z" fill="#74B570"/>
<path d="M63.3231 132.289C63.4008 132.289 63.4787 132.25 63.5564 132.211C63.7898 132.094 63.8676 131.782 63.712 131.586C57.1385 120.465 49.437 117.655 32.6725 112.387C32.4391 112.309 32.1668 112.465 32.089 112.699C32.0113 112.933 32.1668 113.206 32.4002 113.285C48.9313 118.475 56.5161 121.245 62.9341 132.055C63.0119 132.211 63.1675 132.289 63.3231 132.289Z" fill="#74B570"/>
<path d="M67.4068 200.815H78.6868C82.6543 200.815 86.0772 197.966 86.8162 194.064L90.4336 175.02H55.6211L59.2385 194.064C60.0164 197.966 63.4393 200.815 67.4068 200.815Z" fill="#F39892"/>
<path d="M56.5149 179.858H89.3048C89.8104 179.858 90.2383 179.429 90.2383 178.922C90.2383 178.415 89.8104 177.985 89.3048 177.985H56.5149C56.0092 177.985 55.5813 178.415 55.5813 178.922C55.5813 179.429 56.0092 179.858 56.5149 179.858Z" fill="#D54A41"/>
</svg>
